<?xml version="1.0" encoding="UTF-8" standalone="no"?>
<svg
   xmlns:vectornator="http://vectornator.io"
   xmlns:dc="http://purl.org/dc/elements/1.1/"
   xmlns:cc="http://creativecommons.org/ns#"
   xmlns:rdf="http://www.w3.org/1999/02/22-rdf-syntax-ns#"
   xmlns:svg="http://www.w3.org/2000/svg"
   xmlns="http://www.w3.org/2000/svg"
   xmlns:sodipodi="http://sodipodi.sourceforge.net/DTD/sodipodi-0.dtd"
   xmlns:inkscape="http://www.inkscape.org/namespaces/inkscape"
   height="100%"
   stroke-miterlimit="10"
   style="fill-rule:nonzero;clip-rule:evenodd;stroke-linecap:round;stroke-linejoin:round;"
   version="1.1"
   viewBox="0 0 841.995 595.35"
   width="100%"
   xml:space="preserve"
   id="svg953"
   sodipodi:docname="Concept.svg"
   inkscape:version="1.0.1 (c497b03c, 2020-09-10)"
   inkscape:export-filename="/Users/julian/github/SkyLinkML/images/Concept.png"
   inkscape:export-xdpi="199"
   inkscape:export-ydpi="199"><metadata
   id="metadata957"><rdf:RDF><cc:Work
       rdf:about=""><dc:format>image/svg+xml</dc:format><dc:type
         rdf:resource="http://purl.org/dc/dcmitype/StillImage" /><dc:title></dc:title></cc:Work></rdf:RDF></metadata><sodipodi:namedview
   pagecolor="#ffffff"
   bordercolor="#666666"
   borderopacity="1"
   objecttolerance="10"
   gridtolerance="10"
   guidetolerance="10"
   inkscape:pageopacity="0"
   inkscape:pageshadow="2"
   inkscape:window-width="1280"
   inkscape:window-height="772"
   id="namedview955"
   showgrid="false"
   showguides="true"
   inkscape:guide-bbox="true"
   inkscape:zoom="0.88081253"
   inkscape:cx="478.72396"
   inkscape:cy="93.420267"
   inkscape:window-x="0"
   inkscape:window-y="28"
   inkscape:window-maximized="0"
   inkscape:current-layer="layer7" />
<defs
   id="defs833"><marker
   style="overflow:visible;"
   id="marker4073"
   refX="0.0"
   refY="0.0"
   orient="auto"
   inkscape:stockid="Arrow1Mend"
   inkscape:isstock="true"><path
     transform="scale(0.4) rotate(180) translate(10,0)"
     style="fill-rule:evenodd;stroke:#000000;stroke-width:1pt;stroke-opacity:1;fill:#000000;fill-opacity:1"
     d="M 0.0,0.0 L 5.0,-5.0 L -12.5,0.0 L 5.0,5.0 L 0.0,0.0 z "
     id="path4071" /></marker><marker
   style="overflow:visible;"
   id="marker3045"
   refX="0.0"
   refY="0.0"
   orient="auto"
   inkscape:stockid="Arrow1Mend"
   inkscape:isstock="true"><path
     transform="scale(0.4) rotate(180) translate(10,0)"
     style="fill-rule:evenodd;stroke:#43f313;stroke-width:1pt;stroke-opacity:1;fill:#43f313;fill-opacity:1"
     d="M 0.0,0.0 L 5.0,-5.0 L -12.5,0.0 L 5.0,5.0 L 0.0,0.0 z "
     id="path3043" /></marker><marker
   style="overflow:visible;"
   id="marker2333"
   refX="0.0"
   refY="0.0"
   orient="auto"
   inkscape:stockid="Arrow1Mend"
   inkscape:isstock="true"><path
     transform="scale(0.4) rotate(180) translate(10,0)"
     style="fill-rule:evenodd;stroke:#43f313;stroke-width:1pt;stroke-opacity:1;fill:#43f313;fill-opacity:1"
     d="M 0.0,0.0 L 5.0,-5.0 L -12.5,0.0 L 5.0,5.0 L 0.0,0.0 z "
     id="path2331" /></marker><marker
   style="overflow:visible;"
   id="Arrow2Mend"
   refX="0.0"
   refY="0.0"
   orient="auto"
   inkscape:stockid="Arrow2Mend"
   inkscape:isstock="true"><path
     transform="scale(0.6) rotate(180) translate(0,0)"
     d="M 8.7185878,4.0337352 L -2.2072895,0.016013256 L 8.7185884,-4.0017078 C 6.9730900,-1.6296469 6.9831476,1.6157441 8.7185878,4.0337352 z "
     style="fill-rule:evenodd;stroke-width:0.625;stroke-linejoin:round;stroke:#f39913;stroke-opacity:1;fill:#f39913;fill-opacity:1"
     id="path1113" /></marker><marker
   style="overflow:visible;"
   id="marker2177"
   refX="0.0"
   refY="0.0"
   orient="auto"
   inkscape:stockid="Arrow1Send"
   inkscape:isstock="true"><path
     transform="scale(0.2) rotate(180) translate(6,0)"
     style="fill-rule:evenodd;stroke:#43f313;stroke-width:1pt;stroke-opacity:1;fill:#43f313;fill-opacity:1"
     d="M 0.0,0.0 L 5.0,-5.0 L -12.5,0.0 L 5.0,5.0 L 0.0,0.0 z "
     id="path2175" /></marker><marker
   style="overflow:visible;"
   id="Arrow1Lend"
   refX="0.0"
   refY="0.0"
   orient="auto"
   inkscape:stockid="Arrow1Lend"
   inkscape:isstock="true"><path
     transform="scale(0.8) rotate(180) translate(12.5,0)"
     style="fill-rule:evenodd;stroke:#000000;stroke-width:1pt;stroke-opacity:1;fill:#000000;fill-opacity:1"
     d="M 0.0,0.0 L 5.0,-5.0 L -12.5,0.0 L 5.0,5.0 L 0.0,0.0 z "
     id="path1089" /></marker><marker
   style="overflow:visible;"
   id="marker1919"
   refX="0.0"
   refY="0.0"
   orient="auto"
   inkscape:stockid="Arrow1Mend"
   inkscape:isstock="true"><path
     transform="scale(0.4) rotate(180) translate(10,0)"
     style="fill-rule:evenodd;stroke:#000000;stroke-width:1pt;stroke-opacity:1;fill:#000000;fill-opacity:1"
     d="M 0.0,0.0 L 5.0,-5.0 L -12.5,0.0 L 5.0,5.0 L 0.0,0.0 z "
     id="path1917" /></marker><marker
   style="overflow:visible;"
   id="Arrow1Send"
   refX="0.0"
   refY="0.0"
   orient="auto"
   inkscape:stockid="Arrow1Send"
   inkscape:isstock="true"><path
     transform="scale(0.2) rotate(180) translate(6,0)"
     style="fill-rule:evenodd;stroke:#000000;stroke-width:1pt;stroke-opacity:1;fill:#000000;fill-opacity:1"
     d="M 0.0,0.0 L 5.0,-5.0 L -12.5,0.0 L 5.0,5.0 L 0.0,0.0 z "
     id="path1101" /></marker><marker
   style="overflow:visible;"
   id="Arrow1Mend"
   refX="0.0"
   refY="0.0"
   orient="auto"
   inkscape:stockid="Arrow1Mend"
   inkscape:isstock="true"
   inkscape:collect="always"><path
     transform="scale(0.4) rotate(180) translate(10,0)"
     style="fill-rule:evenodd;stroke:#12a2f4;stroke-width:1pt;stroke-opacity:0.623529;fill:#12a2f4;fill-opacity:0.623529"
     d="M 0.0,0.0 L 5.0,-5.0 L -12.5,0.0 L 5.0,5.0 L 0.0,0.0 z "
     id="path1095" /></marker><marker
   style="overflow:visible;"
   id="marker1540"
   refX="0.0"
   refY="0.0"
   orient="auto"
   inkscape:stockid="Arrow1Lend"
   inkscape:isstock="true"><path
     transform="scale(0.8) rotate(180) translate(12.5,0)"
     style="fill-rule:evenodd;stroke:#43f313;stroke-width:1pt;stroke-opacity:1;fill:#43f313;fill-opacity:1"
     d="M 0.0,0.0 L 5.0,-5.0 L -12.5,0.0 L 5.0,5.0 L 0.0,0.0 z "
     id="path1538" /></marker>







<marker
   style="overflow:visible"
   id="Arrow1Lend-2"
   refX="0"
   refY="0"
   orient="auto"
   inkscape:stockid="Arrow1Lend"
   inkscape:isstock="true"><path
     transform="matrix(-0.8,0,0,-0.8,-10,0)"
     style="fill:#f39913;fill-opacity:1;fill-rule:evenodd;stroke:#f39913;stroke-width:1pt;stroke-opacity:1"
     d="M 0,0 5,-5 -12.5,0 5,5 Z"
     id="path1089-9" /></marker><marker
   style="overflow:visible"
   id="Arrow1Lend-2-7"
   refX="0"
   refY="0"
   orient="auto"
   inkscape:stockid="Arrow1Lend"
   inkscape:isstock="true"><path
     transform="matrix(-0.8,0,0,-0.8,-10,0)"
     style="fill:#43f313;fill-opacity:1;fill-rule:evenodd;stroke:#43f313;stroke-width:1pt;stroke-opacity:1"
     d="M 0,0 5,-5 -12.5,0 5,5 Z"
     id="path1089-9-8" /></marker><marker
   style="overflow:visible"
   id="Arrow1Lend-4"
   refX="0"
   refY="0"
   orient="auto"
   inkscape:stockid="Arrow1Lend"
   inkscape:isstock="true"><path
     transform="matrix(-0.8,0,0,-0.8,-10,0)"
     style="fill:#000000;fill-opacity:1;fill-rule:evenodd;stroke:#000000;stroke-width:1pt;stroke-opacity:1"
     d="M 0,0 5,-5 -12.5,0 5,5 Z"
     id="path1089-2" /></marker><style
   id="style3203">.cls-1{fill:none;stroke:#000000;stroke-linecap:round;stroke-linejoin:round;stroke-width:20px;}</style><marker
   style="overflow:visible"
   id="Arrow1Mend-9"
   refX="0"
   refY="0"
   orient="auto"
   inkscape:stockid="Arrow1Mend"
   inkscape:isstock="true"
   inkscape:collect="always"><path
     transform="matrix(-0.4,0,0,-0.4,-4,0)"
     style="fill:#12a2f4;fill-opacity:0.623529;fill-rule:evenodd;stroke:#12a2f4;stroke-width:1pt;stroke-opacity:0.623529"
     d="M 0,0 5,-5 -12.5,0 5,5 Z"
     id="path1095-8" /></marker><marker
   style="overflow:visible"
   id="Arrow1Mend-9-4"
   refX="0"
   refY="0"
   orient="auto"
   inkscape:stockid="Arrow1Mend"
   inkscape:isstock="true"
   inkscape:collect="always"><path
     transform="matrix(-0.4,0,0,-0.4,-4,0)"
     style="fill:#f39913;fill-opacity:1;fill-rule:evenodd;stroke:#f39913;stroke-width:1pt;stroke-opacity:1"
     d="M 0,0 5,-5 -12.5,0 5,5 Z"
     id="path1095-8-3" /></marker><marker
   style="overflow:visible"
   id="marker3045-7"
   refX="0"
   refY="0"
   orient="auto"
   inkscape:stockid="Arrow1Mend"
   inkscape:isstock="true"><path
     transform="matrix(-0.4,0,0,-0.4,-4,0)"
     style="fill:#43f313;fill-opacity:1;fill-rule:evenodd;stroke:#43f313;stroke-width:1pt;stroke-opacity:1"
     d="M 0,0 5,-5 -12.5,0 5,5 Z"
     id="path3043-0" /></marker><marker
   style="overflow:visible"
   id="Arrow1Lend-1"
   refX="0"
   refY="0"
   orient="auto"
   inkscape:stockid="Arrow1Lend"
   inkscape:isstock="true"><path
     transform="matrix(-0.8,0,0,-0.8,-10,0)"
     style="fill:#000000;fill-opacity:1;fill-rule:evenodd;stroke:#000000;stroke-width:1pt;stroke-opacity:1"
     d="M 0,0 5,-5 -12.5,0 5,5 Z"
     id="path1089-5" /></marker></defs>



<g
   fill="#050505"
   opacity="1"
   stroke="none"
   id="g862" />

<g
   id="Layer-2"
   vectornator:layerName="Layer 2" />
<g
   inkscape:groupmode="layer"
   id="layer1"
   inkscape:label="planes"
   style="display:inline"><g
     id="g984"
     inkscape:export-xdpi="100.13521"
     inkscape:export-ydpi="100.13521"><g
       id="Tug"
       vectornator:layerName="Tug"
       style="clip-rule:evenodd;opacity:1;fill-rule:nonzero;stroke-linecap:round;stroke-linejoin:round">
<g
   opacity="1"
   vectornator:layerName="Group 1"
   id="g851">
<path
   d="m 579.705,116.697 c -1.58,0.214 -3.407,0.222 -4.234,1.8 1.425,-0.193 2.811,-0.378 4.214,-0.701 l 0.041,1.358 c 13.932,-1.333 28.968,-1.909 42.625,-4.935 -0.883,1.607 -3.18,1.35 -3.705,3.102 -0.713,2.383 2.128,3.774 3.759,2.037 1.317,-1.402 -0.182,-4.689 2.402,-5.258 4.016,-0.884 4.498,4.674 7.398,4.774 2.694,0.092 3.658,-4.185 0.792,-4.67 -2.017,-0.341 -2.942,0.714 -4.813,-0.787 2.501,-0.578 9.205,-3.096 11.534,-2.204 0.774,0.296 -1.884,6.995 2.205,4.865 3.256,-1.696 -1.506,-3.672 -0.635,-5.449 0.64,-1.306 3.088,-1.944 3.989,-3.234 4.2,-6.008 -1.098,-6.428 -6.032,-5.289 0.816,-5.2902 8.612,-5.9084 12.814,-7.2813 0.959,-0.3135 4.82,-0.6731 4.993,-1.9405 0.173,-1.2701 -8.456,1.2817 -9.456,1.567 -8.066,2.3006 -19.18,7.5478 -27.627,7.0518 -1.454,-0.085 -2.304,-1.477 -3.697,-1.7432 0.535,0.8712 1.188,1.5642 1.899,2.2962 -7.477,2.207 -15.838,2.928 -22.869,6.383 5.871,0.721 14.816,-1.619 20.113,-4.104 -3.62,5.636 -12.962,5.218 -18.873,5.919 -1.992,0.236 -4.896,1.055 -6.843,0.46 -1.887,-0.576 -3.748,-2.414 -5.301,-3.582 -1.991,-1.498 -9.848,-8.2389 -12.305,-3.648 -0.488,0.911 1.169,2.925 1.64,3.652 2.014,3.112 4.288,6.264 5.972,9.561 z"
   fill="#060606"
   fill-rule="nonzero"
   opacity="1"
   stroke="none"
   id="path849" />
</g>
</g><g
       id="Schnur"
       vectornator:layerName="Schnur"
       style="clip-rule:evenodd;fill-rule:nonzero;stroke-linecap:round;stroke-linejoin:round">
<path
   d="m 501.887,122.543 c 0,0 11.633,-0.667 40.583,-2.483 24.783,-1.555 38.928,-3.225 38.928,-3.225"
   fill="none"
   opacity="1"
   stroke="#000000"
   stroke-linecap="butt"
   stroke-linejoin="miter"
   stroke-width="0.5"
   id="path846" />
</g><g
       id="Glider"
       opacity="0.982587"
       vectornator:layerName="Glider"
       style="clip-rule:evenodd;fill-rule:nonzero;stroke-linecap:round;stroke-linejoin:round">
<path
   d="m 454.829,128.681 c 2.471,0.493 5.76,-0.32 6.876,-0.459 1.116,-0.139 10.153,-1.005 14.731,-1.447 4.018,-0.387 6.518,-0.401 9.282,-0.12 1.568,0.16 2.814,0.113 3.676,0.009 2.518,-0.306 2.706,-0.323 3.918,-0.515 1.211,-0.193 4.618,-1.045 5.341,-1.392 0.723,-0.346 2.035,-0.798 2.459,-1.062 0.425,-0.264 0.926,-0.596 1.196,-0.768 0.27,-0.172 0.352,-0.24 0.352,-0.24 0,0 -0.432,-0.601 -0.642,-0.769 -0.63,-0.502 -1.068,-0.768 -1.788,-1.09 -0.62,-0.277 -1.138,-0.511 -1.79,-0.683 -0.411,-0.107 -2.137,-0.483 -3.312,-0.628 -1.017,-0.126 -2.301,-0.349 -3.429,-0.336"
   fill="#100000"
   fill-rule="nonzero"
   opacity="1"
   stroke="#000000"
   stroke-linecap="butt"
   stroke-linejoin="miter"
   stroke-width="0.5"
   id="path835" />
<path
   d="m 491.783,119.188 c -0.317,0.027 -3.8,0.006 -8.818,1.647 -3.64,1.19 -2.859,1.23 -8.028,2.623 -5.104,1.376 -2.635,0.707 -6.459,1.646 -3.141,0.771 -4.849,1.197 -5.417,1.064 -0.651,-0.151 -0.941,-0.414 -1.292,-0.795 -0.718,-0.781 -0.983,-1.007 -2.39,-2.97 -1.408,-1.962 -1.758,-3.093 -2.349,-4.798 -0.263,-0.758 -5.394,-0.047 -5.394,-0.047 0.243,1.186 1.227,4.798 1.735,6.788 0.653,2.552 0.767,3.579 1.598,4.359"
   fill="#100000"
   fill-rule="nonzero"
   opacity="1"
   stroke="#000000"
   stroke-linecap="butt"
   stroke-linejoin="miter"
   stroke-width="0.5"
   id="path837" />
<path
   d="m 493.339,121.552 c -1.918,0.288 -1.903,0.309 -3.008,0.432 -1.078,0.119 -24.288,0.48 -31.354,-1.527 -0.429,-0.122 -1.425,-0.506 -3.31,-0.396 -0.858,0.05 -0.348,0.522 -0.164,0.971 0.059,0.147 0.554,0.479 1.769,0.687 3.605,0.617 10.376,1.389 12.594,1.519 2.967,0.175 12.842,0.513 14.247,0.368 0,0 1.153,-0.407 0.471,0.064"
   fill="#100000"
   fill-rule="nonzero"
   opacity="1"
   stroke="#000000"
   stroke-linecap="butt"
   stroke-linejoin="miter"
   stroke-width="0.5"
   id="path839" />
<path
   d="m 480.097,122.065 c 2.549,-0.081 2.532,-0.055 3.996,-0.148 1.428,-0.09 31.875,-4.398 40.869,-7.974 0.546,-0.217 1.801,-0.829 4.284,-1.092 1.131,-0.12 0.524,0.487 0.342,1.005 -0.06,0.168 -0.664,0.624 -2.229,1.092 -4.641,1.389 -13.41,3.583 -16.298,4.171 -3.863,0.787 -16.754,3.146 -18.612,3.275 0,0 -1.564,-0.202 -0.609,0.164"
   fill="#100000"
   fill-rule="nonzero"
   opacity="1"
   stroke="#000000"
   stroke-linecap="butt"
   stroke-linejoin="miter"
   stroke-width="0.5"
   id="path841" />
<path
   d="m 462.523,117.054 c 0.02,-0.372 -17.655,-0.302 -17.659,0.137 -0.005,0.46 17.64,0.226 17.659,-0.137 z"
   fill="#100000"
   fill-rule="nonzero"
   opacity="1"
   stroke="#000000"
   stroke-linecap="butt"
   stroke-linejoin="miter"
   stroke-width="0.5"
   id="path843" />
</g></g></g><g
   inkscape:groupmode="layer"
   id="layer4"
   inkscape:label="pilots and radio"><path
     d="m 347.47587,286.25832 h 24.93216 c 1.55978,0 2.65243,-0.25626 3.28203,-0.76413 0.62956,-0.50787 0.94233,-1.26268 0.94233,-2.26444 0,-1.45372 -0.38588,-2.99596 -1.16167,-4.61742 -0.77181,-1.62145 -1.88478,-3.14506 -3.33082,-4.5615 -1.45007,-1.41644 -3.2008,-2.57196 -5.2561,-3.45724 -2.05533,-0.88993 -4.37469,-1.33257 -6.95,-1.33257 -2.56709,0 -4.87837,0.44264 -6.93367,1.33257 -2.05533,0.88528 -3.81008,2.0408 -5.25613,3.45724 -1.44605,1.41644 -2.55902,2.94005 -3.33082,4.5615 -0.77583,1.62146 -1.16167,3.1637 -1.16167,4.61742 0,1.00176 0.31276,1.75657 0.94232,2.26444 0.6296,0.50787 1.72226,0.76413 3.28204,0.76413 z m 12.47422,-21.06957 c 1.41762,0 2.72556,-0.44264 3.92785,-1.33258 1.20237,-0.88527 2.17313,-2.08738 2.90838,-3.60633 0.7311,-1.51429 1.10074,-3.21961 1.10074,-5.11597 0,-1.8684 -0.36964,-3.53644 -1.10074,-5.01812 -0.73525,-1.47701 -1.70601,-2.64185 -2.90838,-3.48985 -1.20233,-0.85266 -2.51028,-1.27666 -3.92785,-1.27666 -1.41355,0 -2.72149,0.43332 -3.92382,1.29996 -1.20643,0.86198 -2.17313,2.03613 -2.90838,3.52247 -0.73111,1.48633 -1.10074,3.15438 -1.10074,5.0088 0,1.87771 0.36963,3.57372 1.10074,5.08335 0.73525,1.50962 1.70195,2.70708 2.90838,3.59235 1.20233,0.88994 2.51027,1.33258 3.92382,1.33258 z m -33.87246,21.06957 h 15.05351 c -0.51582,-0.86664 -0.76364,-1.90567 -0.73521,-3.1171 0.0244,-1.21609 0.27215,-2.48809 0.73521,-3.82533 0.4631,-1.33257 1.10078,-2.62787 1.91317,-3.87657 0.81242,-1.25337 1.75475,-2.35764 2.82714,-3.3128 -1.11297,-0.848 -2.38435,-1.55157 -3.81825,-2.10137 -1.43793,-0.55446 -3.07894,-0.83402 -4.93118,-0.83402 -2.23406,0 -4.24472,0.424 -6.04009,1.26268 -1.79131,0.84334 -3.3186,1.95227 -4.57779,3.32212 -1.26326,1.37451 -2.23402,2.87016 -2.90834,4.49627 -0.67428,1.62145 -1.01142,3.21961 -1.01142,4.79913 0,1.01574 0.26808,1.79851 0.80426,2.35297 0.53617,0.55446 1.4298,0.83402 2.68899,0.83402 z m 11.04443,-20.54773 c 1.24295,0 2.38837,-0.38672 3.43233,-1.16017 1.04387,-0.77346 1.88473,-1.82181 2.51839,-3.14972 0.63362,-1.32792 0.95455,-2.80959 0.95455,-4.44968 0,-1.63543 -0.32089,-3.09381 -0.95455,-4.37979 -0.63366,-1.28132 -1.47854,-2.28774 -2.52652,-3.02392 -1.05204,-0.73617 -2.19344,-1.10426 -3.4242,-1.10426 -1.21452,0 -2.3478,0.3774 -3.39984,1.12756 -1.05204,0.75016 -1.90098,1.77055 -2.55089,3.06119 -0.64584,1.28598 -0.96267,2.74436 -0.95049,4.36581 0,1.62611 0.31683,3.09381 0.95049,4.41241 0.63773,1.32325 1.47854,2.36694 2.53058,3.1404 1.05204,0.77345 2.19344,1.16017 3.42015,1.16017 z"
     fill="#303030"
     opacity="1"
     stroke="#000000"
     stroke-linecap="round"
     stroke-linejoin="round"
     stroke-width="0.43504"
     vectornator:layerName="Text 2"
     id="path949"
     style="clip-rule:evenodd;fill-rule:nonzero;stroke-linecap:round;stroke-linejoin:round"
     inkscape:export-xdpi="100.13521"
     inkscape:export-ydpi="100.13521" /><path
     d="m 390.64759,237.95104 c 0.3381,-0.0264 0.6154,-0.17788 0.83288,-0.45037 0.21746,-0.27251 0.29494,-0.61028 0.22806,-1.01249 -0.42611,-2.48125 -1.31231,-4.81854 -2.65449,-7.01284 -1.34216,-2.19429 -3.08176,-4.09386 -5.22292,-5.69773 -2.14885,-1.60859 -4.46676,-2.75364 -6.95529,-3.43257 -2.48443,-0.67991 -4.97945,-0.87218 -7.48253,-0.57523 -0.40472,0.0484 -0.70793,0.21898 -0.90648,0.50663 -0.19595,0.28927 -0.26387,0.59438 -0.2026,0.91954 0.0699,0.33402 0.24976,0.58158 0.53892,0.74932 0.29018,0.17183 0.62343,0.23361 1.00238,0.18689 2.18505,-0.2687 4.35677,-0.097 6.51161,0.50942 2.15484,0.60641 4.17663,1.61797 6.06536,3.03467 1.89286,1.41574 3.42116,3.07289 4.59574,4.97111 1.172,1.89662 1.94429,3.92536 2.31939,6.08778 0.0701,0.37967 0.22217,0.68371 0.46294,0.91274 0.23819,0.22743 0.52633,0.328 0.86701,0.30317 z m -17.49802,3.5091 c 0.34987,-0.46424 0.48233,-0.98892 0.39641,-1.57813 -0.0875,-0.58667 -0.36444,-1.0553 -0.83754,-1.40655 -0.4751,-0.35949 -1.00811,-0.49881 -1.58823,-0.41833 -0.58011,0.0805 -1.05157,0.35762 -1.40613,0.8295 -0.34888,0.46836 -0.47777,0.99874 -0.38216,1.60094 0.0946,0.59805 0.37255,1.07082 0.83797,1.41732 0.44492,0.33385 0.96824,0.46021 1.56643,0.37334 0.59819,-0.0869 1.06908,-0.35732 1.41325,-0.81809 z m 6.0347,-1.74028 c 0.36388,-0.0281 0.65725,-0.19414 0.87859,-0.49579 0.22133,-0.30167 0.2731,-0.65528 0.15884,-1.05515 -0.2501,-0.98834 -0.66293,-1.91927 -1.24159,-2.78771 -0.57709,-0.87097 -1.29882,-1.62783 -2.16203,-2.27563 -0.86063,-0.64627 -1.79631,-1.12489 -2.79713,-1.44047 -1.0024,-0.31304 -2.00777,-0.44916 -3.02179,-0.4048 -0.42595,-0.003 -0.75265,0.14235 -0.98266,0.43515 -0.22898,0.29693 -0.30176,0.62708 -0.21963,0.99313 0.0704,0.3448 0.25234,0.58315 0.54434,0.7176 0.29201,0.13441 0.63495,0.20918 1.02886,0.22416 0.69444,-0.0135 1.38632,0.0976 2.07309,0.33173 0.68777,0.23824 1.33656,0.58561 1.94891,1.04373 0.61236,0.45809 1.1289,0.97983 1.55065,1.56928 0.42174,0.58946 0.72106,1.2226 0.89639,1.90196 0.1098,0.37263 0.2737,0.68045 0.49168,0.92348 0.21542,0.24146 0.50045,0.34705 0.8535,0.31937 z m 5.80164,-0.74838 c 0.36075,-0.023 0.64787,-0.17891 0.85881,-0.46945 0.2135,-0.28897 0.2787,-0.6413 0.1965,-1.053 -0.33563,-1.75603 -0.9914,-3.41153 -1.97046,-4.9614 -0.98008,-1.554 -2.23017,-2.89945 -3.75129,-4.04046 -1.0194,-0.76162 -2.09241,-1.38461 -3.22071,-1.86633 -1.12826,-0.48175 -2.28555,-0.81317 -3.47542,-0.99994 -1.1883,-0.18934 -2.37531,-0.2201 -3.55631,-0.1 -0.42267,0.0373 -0.74124,0.19845 -0.96244,0.48267 -0.21959,0.2817 -0.28858,0.60018 -0.20799,0.95126 0.0704,0.3448 0.25276,0.59394 0.54206,0.74424 0.29187,0.15185 0.63595,0.21329 1.03741,0.18738 1.466,-0.14068 2.91838,0.005 4.35612,0.43185 1.43775,0.4272 2.79097,1.11773 4.06123,2.06905 1.26257,0.94657 2.29881,2.04803 3.10815,3.31101 0.81189,1.26457 1.36144,2.61625 1.65118,4.05661 0.0839,0.39168 0.23797,0.70397 0.46065,0.93939 0.22423,0.23292 0.51596,0.3391 0.87256,0.3171 z"
     fill="#43f313"
     opacity="1"
     stroke="#43f214"
     stroke-linecap="round"
     stroke-linejoin="round"
     stroke-width="0.299696"
     vectornator:layerName="Text 1"
     id="path944-4"
     style="clip-rule:evenodd;fill:#f39913;fill-opacity:1;fill-rule:nonzero;stroke:none;stroke-linecap:round;stroke-linejoin:round"
     inkscape:export-xdpi="100.13521"
     inkscape:export-ydpi="100.13521" /><path
     d="m 598.28655,100.00373 c 0.2775,-0.08226 0.47089,-0.233778 0.584,-0.450734 0.11001,-0.218497 0.12636,-0.467158 0.0428,-0.748976 l -3.1062,-10.478238 -1.81838,0.539045 3.1062,10.478237 c 0.0816,0.275164 0.23259,0.471802 0.45492,0.596599 0.22171,0.122567 0.46644,0.144167 0.73664,0.06407 z m -3.1062,-10.478238 c 0.38705,-0.114738 0.71856,-0.309595 0.98967,-0.583069 0.27424,-0.272002 0.46011,-0.582994 0.56556,-0.932904 0.10304,-0.349197 0.10127,-0.703539 -0.006,-1.065241 -0.10722,-0.361702 -0.2995,-0.661978 -0.57688,-0.900811 -0.28044,-0.240344 -0.60575,-0.399802 -0.97729,-0.482787 -0.37394,-0.08226 -0.76051,-0.06423 -1.15486,0.05268 -0.40409,0.119789 -0.74047,0.31609 -1.00917,0.588837 -0.2687,0.272777 -0.45456,0.583769 -0.55629,0.937405 -0.10238,0.351412 -0.1,0.707969 0.007,1.069671 0.10723,0.361701 0.29884,0.659763 0.57557,0.896381 0.2767,0.236624 0.60203,0.396077 0.97531,0.476124 0.37395,0.08227 0.76296,0.06351 1.16707,-0.05628 z m 5.1603,1.050858 c 0.25769,0.145699 0.53977,0.168297 0.8434,0.07588 0.30285,-0.09499 0.52174,-0.294681 0.65563,-0.602333 0.34062,-0.735868 0.54756,-1.51176 0.61726,-2.321817 0.0697,-0.810048 -0.0123,-1.613745 -0.24781,-2.408163 -0.23549,-0.79441 -0.60474,-1.512955 -1.10466,-2.154153 -0.49991,-0.641188 -1.09561,-1.176736 -1.7829,-1.610296 -0.27993,-0.184978 -0.57239,-0.233465 -0.87732,-0.14549 -0.30571,0.08541 -0.52917,0.260646 -0.66645,0.521043 -0.13198,0.251567 -0.13943,0.485521 -0.0199,0.70114 0.11951,0.215634 0.31096,0.414762 0.57122,0.595913 0.46315,0.311721 0.86222,0.693117 1.19411,1.142719 0.33011,0.452539 0.58113,0.95991 0.74821,1.523536 0.16709,0.563636 0.23865,1.126615 0.21405,1.686726 -0.0215,0.561612 -0.15136,1.097384 -0.38948,1.607321 -0.11948,0.293724 -0.17149,0.565033 -0.15417,0.810952 0.0173,0.245932 0.15169,0.440255 0.3988,0.577022 z m 4.48184,2.031719 c 0.24973,0.14565 0.52032,0.174064 0.81111,0.08303 0.29398,-0.08924 0.51706,-0.283635 0.67016,-0.580074 0.7013,-1.270069 1.13167,-2.614327 1.29226,-4.037926 0.16058,-1.4236 0.0312,-2.833674 -0.38453,-4.2361 -0.27825,-0.938645 -0.66657,-1.81087 -1.16852,-2.610785 -0.50016,-0.802855 -1.09672,-1.528864 -1.789,-2.175795 -0.68985,-0.647651 -1.46219,-1.198422 -2.31218,-1.653758 -0.28993,-0.165118 -0.58282,-0.206237 -0.87869,-0.123359 -0.29352,0.0818 -0.50482,0.25343 -0.63481,0.511667 -0.13199,0.251567 -0.14298,0.491403 -0.0288,0.715852 0.11486,0.226662 0.31229,0.419189 0.59294,0.579818 1.04031,0.570314 1.92739,1.311581 2.66302,2.220861 0.73562,0.909282 1.27368,1.947138 1.61837,3.109903 0.3447,1.162774 0.45919,2.326192 0.33797,3.48948 -0.12125,1.163296 -0.46101,2.268249 -1.02177,3.315612 -0.14843,0.285396 -0.20838,0.556641 -0.18181,0.807066 0.0266,0.250426 0.16649,0.445524 0.41426,0.584505 z m -13.4082,0.614439 c 0.13263,-0.249339 0.13698,-0.484786 0.0175,-0.700417 -0.11951,-0.215625 -0.31098,-0.41476 -0.57124,-0.59591 -0.47511,-0.298505 -0.87596,-0.676965 -1.20252,-1.135387 -0.32347,-0.456926 -0.57029,-0.96795 -0.73738,-1.531585 -0.16708,-0.563626 -0.23559,-1.125101 -0.20297,-1.685171 0.0333,-0.557843 0.15755,-1.094389 0.37598,-1.60816 0.11949,-0.293723 0.17148,-0.565017 0.15418,-0.810955 -0.0173,-0.245922 -0.14863,-0.438741 -0.39636,-0.577743 -0.25947,-0.142751 -0.5398,-0.16828 -0.84277,-0.07365 -0.30614,0.09284 -0.5248,0.29318 -0.65627,0.600113 -0.34239,0.738802 -0.54755,1.511759 -0.61726,2.321807 -0.0721,0.810777 0.0123,1.613752 0.24782,2.408161 0.2355,0.794419 0.60231,1.513686 1.10465,2.154155 0.49992,0.641198 1.09385,1.17968 1.78291,1.610306 0.2775,0.185697 0.56993,0.234192 0.87796,0.14771 0.30485,-0.08828 0.52672,-0.259924 0.66581,-0.523276 z m -2.65049,4.146049 c 0.13199,-0.251557 0.14054,-0.490669 0.0263,-0.715117 -0.1142,-0.224448 -0.31228,-0.419201 -0.58984,-0.578316 -1.04097,-0.572541 -1.92805,-1.313805 -2.66367,-2.223088 -0.73563,-0.909279 -1.27613,-1.946414 -1.62082,-3.109188 -0.3447,-1.162764 -0.45676,-2.326904 -0.33553,-3.490195 0.12123,-1.163288 0.46101,-2.268249 1.02243,-3.313385 0.14534,-0.28691 0.20593,-0.555928 0.17871,-0.808568 -0.0266,-0.250426 -0.1641,-0.446235 -0.41182,-0.58524 -0.24973,-0.145638 -0.52033,-0.174051 -0.80625,-0.08447 -0.28826,0.09067 -0.51396,0.285134 -0.67437,0.583751 -0.4645,0.845008 -0.8119,1.72772 -1.03977,2.647421 -0.22786,0.919701 -0.33236,1.853535 -0.31418,2.799269 0.0175,0.943517 0.16487,1.887179 0.44312,2.825824 0.41574,1.402426 1.07821,2.654467 1.98868,3.760558 0.91049,1.106088 2.00395,1.998617 3.28412,2.681292 0.29724,0.16294 0.59256,0.20334 0.8829,0.119681 0.28866,-0.08035 0.49995,-0.251986 0.62995,-0.510226 z"
     fill="#43f313"
     opacity="1"
     stroke="#000000"
     stroke-linecap="round"
     stroke-linejoin="round"
     stroke-width="0.242411"
     vectornator:layerName="Text 1"
     id="path947-3"
     style="clip-rule:evenodd;fill:#f39913;fill-opacity:1;fill-rule:nonzero;stroke:none;stroke-linecap:round;stroke-linejoin:round"
     inkscape:export-xdpi="100.13521"
     inkscape:export-ydpi="100.13521" /><path
     d="m 355.62377,232.25237 c 0.28985,-0.17609 0.46901,-0.43635 0.54019,-0.77765 0.0712,-0.3413 -0.012,-0.6777 -0.25312,-1.00652 -1.49951,-2.02228 -3.34471,-3.70855 -5.53238,-5.06152 -2.18763,-1.35297 -4.59704,-2.26365 -7.23146,-2.72928 -2.64341,-0.46638 -5.22862,-0.44278 -7.75585,0.0738 -2.524,0.51383 -4.83753,1.46763 -6.93754,2.86174 -0.33938,0.22576 -0.53305,0.51477 -0.5805,0.86103 -0.0444,0.34657 0.0326,0.64951 0.23392,0.9121 0.21306,0.26658 0.48524,0.40639 0.81898,0.42566 0.33649,0.0224 0.66179,-0.0726 0.9789,-0.28538 1.82893,-1.22542 3.84461,-2.05177 6.04133,-2.48253 2.1967,-0.43077 4.45741,-0.43994 6.78212,-0.0275 2.32795,0.40972 4.43943,1.19935 6.34395,2.36367 1.9015,1.16408 3.50586,2.62635 4.81604,4.38709 0.23382,0.30722 0.50668,0.50999 0.82487,0.60579 0.31517,0.0956 0.6177,0.0553 0.91055,-0.12045 z M 341.58982,243.277 c 0.10286,-0.57216 -0.0156,-1.10017 -0.35805,-1.58728 -0.34273,-0.48414 -0.80127,-0.77747 -1.38194,-0.87755 -0.58618,-0.10654 -1.12473,0.01 -1.60619,0.34305 -0.48142,0.33351 -0.77719,0.79349 -0.88079,1.37458 -0.10011,0.57537 0.0241,1.10687 0.38107,1.6012 0.35419,0.49109 0.81551,0.78766 1.38718,0.88697 0.54767,0.0973 1.07174,-0.026 1.56643,-0.37337 0.49468,-0.34738 0.79296,-0.80113 0.89229,-1.3676 z m 4.60092,-4.27525 c 0.31209,-0.18919 0.49903,-0.46973 0.5605,-0.83879 0.0615,-0.36907 -0.0518,-0.70802 -0.33421,-1.01335 -0.66902,-0.76927 -1.45738,-1.41391 -2.36556,-1.92797 -0.90791,-0.51701 -1.89344,-0.86696 -2.95605,-1.05574 -1.05961,-0.18859 -2.11059,-0.1937 -3.14616,-0.0239 -1.03584,0.17272 -1.99451,0.50476 -2.8795,1.00175 -0.3815,0.1895 -0.60753,0.46654 -0.68073,0.83162 -0.0704,0.36828 0.0135,0.69577 0.25191,0.98543 0.21836,0.27598 0.48826,0.40663 0.8095,0.39492 0.32123,-0.0118 0.66104,-0.0997 1.01937,-0.26403 0.61368,-0.3253 1.28129,-0.53822 1.99985,-0.63903 0.72127,-0.0976 1.457,-0.0803 2.21016,0.0524 0.75316,0.13262 1.4495,0.36527 2.0918,0.70111 0.64228,0.33586 1.19501,0.76592 1.65792,1.29315 0.26609,0.28305 0.55122,0.48384 0.85538,0.60241 0.30117,0.11834 0.60319,0.084 0.9058,-0.0999 z m 4.84033,-3.28485 c 0.31159,-0.18327 0.49752,-0.45191 0.55473,-0.80636 0.0602,-0.35422 -0.0406,-0.69807 -0.29963,-1.02843 -1.09164,-1.41584 -2.42365,-2.59755 -3.99653,-3.53918 -1.57568,-0.94484 -3.29826,-1.58177 -5.17052,-1.91398 -1.25334,-0.21992 -2.492,-0.29194 -3.71629,-0.21293 -1.22426,0.079 -2.40662,0.3052 -3.55282,0.67522 -1.14593,0.36706 -2.21922,0.87499 -3.21907,1.51489 -0.36041,0.22394 -0.57203,0.51147 -0.64125,0.8649 -0.0689,0.35047 0.0132,0.66582 0.24347,0.9428 0.21837,0.27598 0.49351,0.41607 0.81949,0.41971 0.32898,0.004 0.66379,-0.0965 1.0104,-0.30072 1.24493,-0.78681 2.60688,-1.31192 4.08258,-1.57948 1.47587,-0.26728 2.99509,-0.26132 4.55788,0.0147 1.55381,0.27531 2.97548,0.79093 4.2675,1.55305 1.295,0.76241 2.39517,1.72089 3.30346,2.8757 0.25155,0.31172 0.52992,0.52094 0.83485,0.63061 0.30519,0.10673 0.61345,0.0699 0.92176,-0.11079 z"
     fill="#43f313"
     opacity="1"
     stroke="#43f214"
     stroke-linecap="round"
     stroke-linejoin="round"
     stroke-width="0.299696"
     vectornator:layerName="Text 1"
     id="path944-4-7"
     style="clip-rule:evenodd;fill:#13a3f3;fill-opacity:1;fill-rule:nonzero;stroke:none;stroke-linecap:round;stroke-linejoin:round"
     inkscape:transform-center-x="-3.2108201"
     inkscape:transform-center-y="1.764895"
     inkscape:export-xdpi="100.13521"
     inkscape:export-ydpi="100.13521" /><path
     d="m 501.88706,128.54322 c -0.27686,0.0844 -0.46912,0.23732 -0.58059,0.45514 -0.10833,0.21931 -0.12285,0.46809 -0.0372,0.74927 l 3.18544,10.45441 1.81424,-0.55279 -3.18543,-10.45441 c -0.0837,-0.27453 -0.23616,-0.47004 -0.45943,-0.59315 -0.22263,-0.12089 -0.46751,-0.14061 -0.73709,-0.0587 z m 3.18543,10.45441 c -0.38617,0.1177 -0.71619,0.31502 -0.98523,0.59053 -0.27217,0.27408 -0.45568,0.58647 -0.55847,0.93717 -0.10043,0.34997 -0.096,0.70428 0.0141,1.06517 0.10992,0.36089 0.30449,0.6597 0.58367,0.89643 0.28226,0.2382 0.60876,0.39519 0.98092,0.47537 0.37454,0.0795 0.76097,0.0585 1.15444,-0.0614 0.40318,-0.1228 0.73805,-0.32167 1.00467,-0.59645 0.26662,-0.2748 0.45014,-0.58719 0.54917,-0.94159 0.0997,-0.35218 0.0946,-0.7087 -0.0153,-1.06958 -0.10992,-0.36088 -0.30382,-0.65749 -0.58231,-0.89201 -0.27851,-0.23451 -0.60503,-0.3915 -0.9789,-0.46872 -0.37456,-0.0795 -0.76342,-0.0577 -1.16662,0.0651 z m -5.16811,-1.01177 c -0.25878,-0.14374 -0.54102,-0.1642 -0.84391,-0.0699 -0.30214,0.0972 -0.51949,0.29863 -0.65106,0.60728 -0.33504,0.73843 -0.53608,1.51587 -0.59965,2.32643 -0.0633,0.81058 0.0245,1.6136 0.26607,2.40622 0.24147,0.7926 0.61617,1.50831 1.12093,2.14573 0.50476,0.63738 1.10449,1.16839 1.79504,1.59675 0.28132,0.18286 0.57414,0.22912 0.87839,0.13886 0.30505,-0.0877 0.52719,-0.26465 0.6625,-0.52607 0.13008,-0.25258 0.1357,-0.48656 0.0146,-0.70128 -0.12115,-0.21472 -0.31409,-0.4124 -0.57572,-0.59157 -0.46548,-0.3082 -0.86743,-0.68657 -1.20273,-1.13364 -0.33351,-0.45003 -0.58837,-0.95549 -0.75971,-1.51783 -0.17136,-0.56236 -0.24719,-1.12478 -0.22681,-1.68506 0.0172,-0.56175 0.14305,-1.09849 0.3773,-1.61021 0.11723,-0.29464 0.16721,-0.56631 0.148,-0.8121 -0.0191,-0.24581 -0.15491,-0.43913 -0.40315,-0.574 z m -4.49709,-1.99772 c -0.25081,-0.14375 -0.52163,-0.17014 -0.81171,-0.0769 -0.29331,0.0915 -0.51491,0.28755 -0.66576,0.58513 -0.69167,1.27535 -1.11184,2.62282 -1.26163,4.0476 -0.1498,1.42477 -0.01,2.83383 0.41657,4.23306 0.28538,0.93651 0.68026,1.80579 1.18826,2.60187 0.50621,0.79906 1.10826,1.52052 1.80541,2.16218 0.69473,0.64241 1.47123,1.18732 2.32464,1.63622 0.29116,0.16291 0.58435,0.20181 0.87959,0.1167 0.2929,-0.084 0.50289,-0.25725 0.63092,-0.51647 0.13008,-0.25256 0.13927,-0.49247 0.0234,-0.71605 -0.11657,-0.22579 -0.31546,-0.4168 -0.59733,-0.57531 -1.04459,-0.56242 -1.93725,-1.29694 -2.67975,-2.20064 -0.74248,-0.90368 -1.28838,-1.93744 -1.64187,-3.09757 -0.35348,-1.16013 -0.47661,-2.32268 -0.36437,-3.48682 0.1124,-1.16417 0.44382,-2.27167 0.99663,-3.32324 0.14627,-0.28653 0.20415,-0.55821 0.1757,-0.80842 -0.0285,-0.25022 -0.16983,-0.44427 -0.41868,-0.58136 z m 13.40317,-0.71592 c -0.13076,0.25031 -0.13335,0.4858 -0.0122,0.70051 0.12115,0.21472 0.31412,0.4124 0.57572,0.59158 0.47738,0.2949 0.88108,0.67031 1.2111,1.12625 0.32692,0.45446 0.57761,0.9636 0.74896,1.52594 0.17136,0.56235 0.2441,1.12329 0.21573,1.68359 -0.029,0.5581 -0.14925,1.09556 -0.36379,1.61096 -0.11723,0.29462 -0.16719,0.56629 -0.148,0.8121 0.0192,0.24578 0.15193,0.43762 0.40073,0.57473 0.26055,0.14079 0.54106,0.1642 0.84333,0.0669 0.30542,-0.0952 0.52257,-0.29714 0.65172,-0.60506 0.33678,-0.74137 0.53607,-1.51586 0.59965,-2.32641 0.0664,-0.81127 -0.0245,-1.61362 -0.26606,-2.40621 -0.24149,-0.79262 -0.61376,-1.50908 -1.12095,-2.14573 -0.50474,-0.63739 -1.10273,-1.17137 -1.79503,-1.59677 -0.27891,-0.18358 -0.5717,-0.22987 -0.87906,-0.14102 -0.30416,0.0907 -0.52475,0.2639 -0.66183,0.5283 z m 2.61902,-4.16601 c -0.13008,0.25255 -0.13682,0.49173 -0.0209,0.7153 0.11591,0.22357 0.31545,0.41682 0.5942,0.57383 1.04529,0.56465 1.93795,1.29917 2.68042,2.20285 0.7425,0.9037 1.29083,1.93671 1.64432,3.09684 0.35348,1.16011 0.47469,2.32332 0.36195,3.48756 -0.11241,1.16417 -0.44383,2.27168 -0.99733,3.32102 -0.14317,0.28801 -0.20172,0.55749 -0.17258,0.8099 0.0285,0.25021 0.16752,0.44497 0.41624,0.58211 0.25082,0.14375 0.52163,0.1701 0.80686,0.0784 0.28757,-0.0928 0.51178,-0.28903 0.66994,-0.58886 0.45808,-0.8485 0.79879,-1.73381 1.01968,-2.65519 0.2209,-0.92141 0.31834,-1.85601 0.29299,-2.80159 -0.0246,-0.94334 -0.17915,-1.88587 -0.4644,-2.8224 -0.42635,-1.39923 -1.09829,-2.64623 -2.0171,-3.7454 -0.91884,-1.09914 -2.01902,-1.98339 -3.30432,-2.65634 -0.29847,-0.16069 -0.59409,-0.19885 -0.88378,-0.11301 -0.28802,0.0826 -0.49803,0.25576 -0.62608,0.51498 z"
     fill="#43f313"
     opacity="1"
     stroke="#000000"
     stroke-linecap="round"
     stroke-linejoin="round"
     stroke-width="0.242411"
     vectornator:layerName="Text 1"
     id="path947-3-4"
     style="clip-rule:evenodd;fill:#13a3f3;fill-opacity:1;fill-rule:nonzero;stroke:none;stroke-linecap:round;stroke-linejoin:round"
     inkscape:transform-center-x="13.146367"
     inkscape:transform-center-y="-36.541496"
     inkscape:export-xdpi="100.13521"
     inkscape:export-ydpi="100.13521" /><path
     style="fill:none;stroke:#12a2f4;stroke-width:1;stroke-linecap:butt;stroke-linejoin:miter;stroke-miterlimit:10;stroke-dasharray:1, 3;stroke-dashoffset:0;stroke-opacity:0.623529;marker-end:url(#Arrow1Mend)"
     d="M 350.51721,219.08103 486.0493,152.92744"
     id="path1084"
     sodipodi:nodetypes="cc"
     inkscape:export-xdpi="100.13521"
     inkscape:export-ydpi="100.13521" /><path
     style="clip-rule:evenodd;fill:none;fill-rule:nonzero;stroke:#f39913;stroke-width:1;stroke-linecap:butt;stroke-linejoin:miter;stroke-miterlimit:10;stroke-dasharray:1, 4;stroke-dashoffset:0;stroke-opacity:1;marker-end:url(#Arrow2Mend)"
     d="M 396.13082,219.24587 587.54234,124.86593"
     id="path1084-7"
     sodipodi:nodetypes="cc"
     inkscape:export-xdpi="100.13521"
     inkscape:export-ydpi="100.13521" /></g><g
   inkscape:groupmode="layer"
   id="layer5"
   inkscape:label="camera system"><g
     opacity="1"
     vectornator:layerName="(curve)"
     id="g860"
     transform="matrix(1.4525923,-0.20531991,0.1967597,1.3920308,-241.69128,59.553683)"
     style="clip-rule:evenodd;fill-rule:nonzero;stroke-linecap:round;stroke-linejoin:round"
     inkscape:export-xdpi="100.13521"
     inkscape:export-ydpi="100.13521">
<path
   d="m 485.301,104.128 h 5.836 c 1.069,0 1.936,0.95 1.936,2.122 v 3.557 c 0,1.172 -0.867,2.122 -1.936,2.122 h -5.836 c -1.069,0 -1.936,-0.95 -1.936,-2.122 v -3.557 c 0,-1.172 0.867,-2.122 1.936,-2.122 z"
   fill="#43f313"
   fill-rule="nonzero"
   opacity="1"
   stroke="#43f214"
   stroke-linecap="round"
   stroke-linejoin="round"
   stroke-width="1.5"
   id="path854" />
<path
   d="m 493.102,109.305 4.438,2.675 -0.153,-4.835"
   fill="#43f313"
   fill-rule="nonzero"
   opacity="1"
   stroke="#43f214"
   stroke-linecap="round"
   stroke-linejoin="round"
   stroke-width="1.5"
   id="path856" />
<path
   d="m 493.102,106.024 4.438,-2.674 -0.153,4.835"
   fill="#43f313"
   fill-rule="nonzero"
   opacity="1"
   stroke="#43f214"
   stroke-linecap="round"
   stroke-linejoin="round"
   stroke-width="1.5"
   id="path858" />
</g><path
     style="fill:none;stroke:#43f313;stroke-width:2;stroke-linecap:butt;stroke-linejoin:miter;stroke-miterlimit:10;stroke-dasharray:none;stroke-dashoffset:0;stroke-opacity:1"
     d="m 226.03064,265.80881 h 41.24691 v 30.82875 h -41.24691 z"
     id="path1534"
     inkscape:export-xdpi="100.13521"
     inkscape:export-ydpi="100.13521" /><path
     d="m 431.89057,129.57218 c -0.33191,-0.0696 -0.64059,-0.002 -0.92586,0.19822 -0.28531,0.2004 -0.45455,0.50283 -0.50345,0.90758 -0.28825,2.50102 -0.0945,4.99315 0.57702,7.47618 0.67152,2.48301 1.80727,4.79487 3.41152,6.93576 1.61029,2.14757 3.51306,3.89778 5.71057,5.24863 2.19327,1.3506 4.53374,2.23624 7.01942,2.65455 0.40201,0.0674 0.74095,-0.0112 1.01232,-0.23149 0.26932,-0.22255 0.42025,-0.49627 0.45286,-0.82554 0.0268,-0.34019 -0.0763,-0.62831 -0.30667,-0.87056 -0.23024,-0.24642 -0.53267,-0.39937 -0.90951,-0.46095 -2.1725,-0.35614 -4.20849,-1.13112 -6.10613,-2.31859 -1.89762,-1.18747 -3.5537,-2.72637 -4.96827,-4.6167 -1.41878,-1.89058 -2.41988,-3.9104 -3.01375,-6.06219 -0.59183,-2.14953 -0.76296,-4.31354 -0.51534,-6.49424 0.0395,-0.38407 -0.0211,-0.71859 -0.18779,-1.00605 -0.16469,-0.28519 -0.41297,-0.46266 -0.74688,-0.53458 z m 17.77906,1.54903 c -0.46623,0.34723 -0.74077,0.81355 -0.82387,1.40317 -0.0809,0.5876 0.0532,1.11518 0.40856,1.58521 0.35495,0.47851 0.82734,0.76197 1.40671,0.84776 0.57927,0.0862 1.10967,-0.0477 1.58255,-0.40098 0.46643,-0.35145 0.73914,-0.82425 0.81661,-1.42907 0.0773,-0.60052 -0.0567,-1.13235 -0.40596,-1.59568 -0.33319,-0.44539 -0.79991,-0.71373 -1.39841,-0.79844 -0.59843,-0.0852 -1.12642,0.0425 -1.58619,0.38803 z m -6.28056,-0.0255 c -0.35713,-0.0753 -0.68534,0.002 -0.9825,0.22896 -0.29721,0.2273 -0.44624,0.55216 -0.44893,0.96801 -0.0377,1.01879 0.0969,2.02823 0.40827,3.02427 0.30911,0.99801 0.7891,1.92719 1.43548,2.79146 0.64437,0.86205 1.40787,1.58431 2.27968,2.16839 0.87407,0.58209 1.80068,0.99522 2.78615,1.23795 0.40798,0.12246 0.76233,0.0748 1.06534,-0.1415 0.30319,-0.22062 0.4658,-0.51702 0.48988,-0.89139 0.0293,-0.35069 -0.0783,-0.63057 -0.32076,-0.84164 -0.24249,-0.21104 -0.55059,-0.37917 -0.92444,-0.50417 -0.67026,-0.18213 -1.30304,-0.48325 -1.89638,-0.90088 -0.59311,-0.42189 -1.11815,-0.93757 -1.5771,-1.5493 -0.45898,-0.6117 -0.8081,-1.25756 -1.04725,-1.94175 -0.23908,-0.68424 -0.34847,-1.37595 -0.32582,-2.07721 -6.4e-4,-0.38848 -0.0715,-0.72995 -0.21236,-1.02444 -0.13925,-0.2921 -0.38276,-0.47369 -0.72936,-0.54633 z m -5.77813,-0.91233 c -0.35267,-0.0793 -0.67205,-0.0103 -0.95614,0.20919 -0.28609,0.21734 -0.44766,0.53714 -0.48445,0.95535 -0.17132,1.7796 -0.007,3.55266 0.49698,5.31519 0.50394,1.76679 1.3256,3.40929 2.46478,4.93177 0.76434,1.01737 1.61907,1.91677 2.56654,2.69612 0.94743,0.77937 1.96499,1.42261 3.05443,1.93621 1.08724,0.51556 2.21776,0.87866 3.38494,1.09525 0.41612,0.083 0.76714,0.0178 1.05928,-0.19278 0.28991,-0.20864 0.4456,-0.49491 0.46685,-0.85451 0.0294,-0.3507 -0.0757,-0.64104 -0.31106,-0.86659 -0.23744,-0.22775 -0.55039,-0.3834 -0.94299,-0.47128 -1.44647,-0.27686 -2.7994,-0.82482 -4.05927,-1.63847 -1.25978,-0.81398 -2.36445,-1.85692 -3.31622,-3.12685 -0.94573,-1.26321 -1.63072,-2.61145 -2.05262,-4.05095 -0.42384,-1.44176 -0.57143,-2.8934 -0.44479,-4.35713 0.0296,-0.39948 -0.0305,-0.74249 -0.17815,-1.03098 -0.14987,-0.28649 -0.39988,-0.47042 -0.74829,-0.5495 z"
     fill="#43f313"
     opacity="1"
     stroke="#43f214"
     stroke-linecap="round"
     stroke-linejoin="round"
     stroke-width="0.299696"
     vectornator:layerName="Text 1"
     id="path944-4-7-1"
     style="clip-rule:evenodd;fill:#43f313;fill-opacity:1;fill-rule:nonzero;stroke:none;stroke-linecap:round;stroke-linejoin:round"
     inkscape:export-xdpi="100.13521"
     inkscape:export-ydpi="100.13521" /><path
     d="m 248.09395,266.01784 c 0.28939,-0.006 0.51598,-0.10074 0.68251,-0.27999 0.16395,-0.18157 0.24556,-0.41702 0.23961,-0.7109 l -0.2205,-10.92673 -1.89621,0.0382 0.22051,10.92673 c 0.006,0.28694 0.0994,0.51654 0.28069,0.69576 0.18133,0.17691 0.4116,0.26255 0.69336,0.2569 z m -0.2205,-10.92673 c 0.40362,-0.008 0.7749,-0.10825 1.10875,-0.30017 0.33647,-0.18967 0.59807,-0.44034 0.79242,-0.74983 0.19182,-0.30943 0.28395,-0.65159 0.27629,-1.0288 -0.008,-0.37718 -0.11353,-0.71766 -0.31772,-1.02141 -0.20678,-0.30603 -0.47825,-0.54594 -0.81455,-0.72436 -0.3388,-0.17839 -0.71636,-0.26331 -1.12759,-0.25501 -0.42139,0.009 -0.79774,0.10871 -1.12908,0.30057 -0.33134,0.19188 -0.59292,0.44256 -0.78466,0.75663 -0.19179,0.31175 -0.28392,0.65622 -0.27652,1.03333 0.008,0.37719 0.11341,0.71535 0.31764,1.01681 0.20416,0.30144 0.47565,0.54136 0.81441,0.7174 0.3388,0.17838 0.7189,0.26327 1.14031,0.25476 z m 4.69779,2.37988 c 0.20991,0.20873 0.47593,0.30522 0.79319,0.29654 0.3172,-0.0112 0.58116,-0.146 0.79173,-0.40721 0.52333,-0.6194 0.92834,-1.3128 1.21008,-2.07546 0.28172,-0.76268 0.41549,-1.5594 0.39876,-2.38783 -0.0168,-0.8284 -0.18248,-1.61907 -0.49477,-2.36978 -0.31227,-0.75068 -0.74487,-1.42486 -1.29282,-2.02494 -0.22095,-0.25251 -0.49012,-0.37671 -0.80747,-0.37263 -0.3174,0.001 -0.5793,0.11118 -0.78063,0.32596 -0.19389,0.20763 -0.26303,0.43127 -0.20487,0.67084 0.0581,0.23959 0.19003,0.48231 0.39302,0.72591 0.36407,0.42323 0.64789,0.8967 0.84887,1.41814 0.19849,0.5238 0.30618,1.07953 0.31805,1.66728 0.0119,0.58777 -0.0685,1.14958 -0.24028,1.68319 -0.16945,0.53587 -0.43656,1.01812 -0.80122,1.4468 -0.19299,0.2516 -0.31499,0.49944 -0.36342,0.74117 -0.0484,0.24174 0.0297,0.46472 0.23176,0.66204 z m 3.7838,3.14604 c 0.20224,0.20658 0.45565,0.30564 0.76018,0.29483 0.30713,-0.008 0.57371,-0.13658 0.79983,-0.38189 1.01261,-1.03901 1.7836,-2.2213 2.31544,-3.55156 0.53184,-1.33025 0.78049,-2.72423 0.75099,-4.18669 -0.0197,-0.97882 -0.16324,-1.92274 -0.43542,-2.82702 -0.26969,-0.90665 -0.6527,-1.76472 -1.14895,-2.57188 -0.49371,-0.80721 -1.09263,-1.54285 -1.79169,-2.20702 -0.23585,-0.23599 -0.5074,-0.35321 -0.81466,-0.35164 -0.3047,0.001 -0.5539,0.11068 -0.74763,0.32529 -0.1939,0.20764 -0.26801,0.436 -0.21736,0.68267 0.0508,0.24899 0.19015,0.48692 0.41824,0.71613 0.85214,0.82546 1.51125,1.77516 1.97983,2.84678 0.46856,1.07164 0.71257,2.21493 0.73704,3.42746 0.0244,1.21255 -0.17325,2.36474 -0.59818,3.4544 -0.42497,1.08965 -1.04521,2.06519 -1.86331,2.92666 -0.2187,0.2359 -0.34835,0.48158 -0.38905,0.73012 -0.0407,0.24851 0.0426,0.4737 0.2447,0.67332 z m -13.09223,-2.9582 c 0.19393,-0.20532 0.26048,-0.43121 0.20236,-0.67077 -0.0581,-0.23958 -0.19004,-0.48231 -0.39305,-0.72591 -0.37909,-0.41367 -0.66541,-0.88478 -0.85891,-1.41331 -0.19092,-0.52627 -0.29361,-1.08441 -0.30546,-1.67218 -0.0119,-0.58774 0.0704,-1.14734 0.25053,-1.67876 0.17985,-0.5291 0.44174,-1.0136 0.78843,-1.45118 0.19301,-0.25158 0.31498,-0.49943 0.36343,-0.74116 0.0484,-0.24173 -0.0276,-0.46242 -0.22921,-0.66208 -0.21241,-0.20638 -0.47597,-0.30523 -0.79319,-0.29416 -0.31979,0.008 -0.58371,0.14374 -0.79177,0.40491 -0.52581,0.62175 -0.92833,1.31278 -1.21008,2.07545 -0.28422,0.76273 -0.41548,1.55939 -0.39874,2.38781 0.0168,0.82842 0.17998,1.61914 0.49475,2.36978 0.31228,0.75069 0.7424,1.42723 1.29283,2.02496 0.21842,0.25255 0.48757,0.37675 0.8075,0.37494 0.31734,-0.004 0.57675,-0.11115 0.78061,-0.32829 z m -3.6538,3.29613 c 0.1939,-0.20762 0.26546,-0.43593 0.21474,-0.68262 -0.0507,-0.24667 -0.19013,-0.48694 -0.41564,-0.71386 -0.85219,-0.82777 -1.5113,-1.77749 -1.97986,-2.84911 -0.46858,-1.07162 -0.71513,-2.21485 -0.7396,-3.42741 -0.0244,-1.21252 0.17575,-2.36479 0.60071,-3.45443 0.42496,-1.08967 1.04522,-2.0652 1.86337,-2.92435 0.21613,-0.23817 0.3458,-0.48154 0.38646,-0.73237 0.0406,-0.24853 -0.0401,-0.47377 -0.24214,-0.67341 -0.20225,-0.20656 -0.45567,-0.30563 -0.7551,-0.295 -0.30196,0.0114 -0.57112,0.13887 -0.80487,0.38434 -0.67169,0.69182 -1.24045,1.45103 -1.70373,2.27756 -0.46328,0.82652 -0.81134,1.69934 -1.04427,2.61613 -0.23297,0.91446 -0.34077,1.86347 -0.32101,2.84228 0.0295,1.46245 0.33676,2.84524 0.92182,4.15294 0.58508,1.30771 1.40314,2.45795 2.45683,3.45526 0.24348,0.23583 0.51755,0.353 0.81968,0.3492 0.29961,-9.3e-4 0.54883,-0.11062 0.74258,-0.32518 z"
     fill="#43f313"
     opacity="1"
     stroke="#000000"
     stroke-linecap="round"
     stroke-linejoin="round"
     stroke-width="0.242411"
     vectornator:layerName="Text 1"
     id="path947-3-3"
     style="clip-rule:evenodd;fill:#43f313;fill-opacity:1;fill-rule:nonzero;stroke:none;stroke-linecap:round;stroke-linejoin:round"
     inkscape:transform-center-x="-1.285302"
     inkscape:transform-center-y="-7.0931169"
     inkscape:export-xdpi="100.13521"
     inkscape:export-ydpi="100.13521" /><path
     style="clip-rule:evenodd;fill:none;fill-rule:nonzero;stroke:#43f313;stroke-width:1.5;stroke-linecap:butt;stroke-linejoin:miter;stroke-miterlimit:10;stroke-dasharray:6,3;stroke-dashoffset:0;stroke-opacity:1;marker-end:url(#marker3045)"
     d="M 427.06294,147.07762 262.70625,227.86061"
     id="path1084-7-4"
     sodipodi:nodetypes="cc"
     inkscape:transform-center-x="-5.7130669"
     inkscape:transform-center-y="-13.162413"
     inkscape:export-xdpi="100.13521"
     inkscape:export-ydpi="100.13521" /><path
     style="fill:none;stroke:#000000;stroke-width:1;stroke-linecap:butt;stroke-linejoin:miter;stroke-miterlimit:10;stroke-dasharray:6, 1;stroke-dashoffset:0;stroke-opacity:1;marker-end:url(#Arrow1Lend)"
     d="m 268.42596,279.3566 c 33.54194,-9.09013 41.35121,-21.23186 57.13699,-36.27745"
     id="path1871"
     sodipodi:nodetypes="cc"
     inkscape:export-xdpi="100.13521"
     inkscape:export-ydpi="100.13521" /><path
     style="clip-rule:evenodd;fill:none;fill-rule:nonzero;stroke:#000000;stroke-width:1;stroke-linecap:butt;stroke-linejoin:miter;stroke-miterlimit:10;stroke-dasharray:6, 1;stroke-dashoffset:0;stroke-opacity:1;marker-end:url(#Arrow1Lend-4)"
     d="m 268.42596,282.52924 c 33.54194,-9.09013 45.19994,-15.38323 56.62335,-18.92802"
     id="path1871-3"
     sodipodi:nodetypes="cc"
     inkscape:export-xdpi="100.13521"
     inkscape:export-ydpi="100.13521" /><g
     data-name="E404, gear, Media, media player, multimedia"
     id="E404_gear_Media_media_player_multimedia"
     transform="matrix(0.04629889,0,0,0.04259962,237.03641,270.18353)"
     style="stroke:#0d3004;stroke-opacity:1"
     inkscape:export-xdpi="100.13521"
     inkscape:export-ydpi="100.13521"><path
       class="cls-1"
       d="M 373.59,340.89 V 299.52 A 18.84,18.84 0 0 0 354.75,280.68 H 333.48 A 18.92,18.92 0 0 1 316,268.91 l -0.1,-0.24 a 19,19 0 0 1 4,-20.71 l 15,-15 a 18.83,18.83 0 0 0 0,-26.64 L 305.72,177 a 18.83,18.83 0 0 0 -26.64,0 l -15,15 a 19,19 0 0 1 -20.71,4 l -0.24,-0.1 a 18.92,18.92 0 0 1 -11.77,-17.46 v -21.19 a 18.84,18.84 0 0 0 -18.84,-18.84 h -41.41 a 18.84,18.84 0 0 0 -18.84,18.84 v 21.27 A 18.92,18.92 0 0 1 140.5,196 l -0.24,0.1 a 19,19 0 0 1 -20.71,-4 l -15,-15 a 18.83,18.83 0 0 0 -26.64,0 l -29.29,29.18 a 18.83,18.83 0 0 0 0,26.64 l 15,15 a 19,19 0 0 1 4,20.71 l -0.1,0.24 A 18.92,18.92 0 0 1 50.06,280.64 H 28.84 A 18.84,18.84 0 0 0 10,299.52 v 41.37 a 18.84,18.84 0 0 0 18.84,18.84 h 21.27 a 18.92,18.92 0 0 1 17.46,11.77 l 0.1,0.24 a 19,19 0 0 1 -4,20.71 l -15,15 a 18.83,18.83 0 0 0 0,26.64 l 29.25,29.25 a 18.83,18.83 0 0 0 26.64,0 l 15,-15 a 19,19 0 0 1 20.71,-4 l 0.24,0.1 a 18.92,18.92 0 0 1 11.77,17.46 v 21.27 A 18.84,18.84 0 0 0 171.11,502 h 41.37 a 18.84,18.84 0 0 0 18.84,-18.84 v -21.27 a 18.92,18.92 0 0 1 11.77,-17.46 l 0.24,-0.1 a 19,19 0 0 1 20.71,4 l 15,15 a 18.83,18.83 0 0 0 26.64,0 L 335,434.13 a 18.83,18.83 0 0 0 0,-26.64 l -15,-15 a 19,19 0 0 1 -4,-20.71 l 0.1,-0.24 a 18.92,18.92 0 0 1 17.46,-11.77 h 21.27 a 18.84,18.84 0 0 0 18.76,-18.88 z"
       id="path3207"
       style="stroke:#0d3004;stroke-opacity:1" /><circle
       class="cls-1"
       cx="191.8"
       cy="320.20001"
       r="74.800003"
       id="circle3209"
       style="stroke:#0d3004;stroke-opacity:1" /><path
       class="cls-1"
       d="M 207.45,138.41 V 138 a 15,15 0 0 1 15,-15 h 16.9 a 15,15 0 0 0 13.88,-9.35 c 0,-0.06 0.05,-0.13 0.08,-0.19 A 15.06,15.06 0 0 0 250.09,97 l -12,-11.94 a 15,15 0 0 1 0,-21.17 l 23.24,-23.24 a 15,15 0 0 1 21.16,0 l 11.95,12 a 15.07,15.07 0 0 0 16.45,3.18 l 0.19,-0.08 a 15,15 0 0 0 9.36,-13.88 V 25 a 15,15 0 0 1 15,-15 h 32.87 a 15,15 0 0 1 15,15 v 16.9 a 15,15 0 0 0 9.35,13.88 l 0.18,0.08 a 15.09,15.09 0 0 0 16.46,-3.18 l 12,-12 a 15,15 0 0 1 21.16,0 l 23.24,23.24 a 15,15 0 0 1 0,21.17 L 453.68,97 a 15.05,15.05 0 0 0 -3.17,16.46 l 0.07,0.19 a 15,15 0 0 0 13.87,9.35 h 16.9 a 15,15 0 0 1 15,15 v 32.86 a 15,15 0 0 1 -15,15 h -16.9 a 15,15 0 0 0 -13.87,9.36 l -0.07,0.18 a 15,15 0 0 0 3.17,16.46 l 11.95,11.95 a 15,15 0 0 1 0,21.16 l -23.24,23.24 a 15,15 0 0 1 -21.16,0 l -12,-11.95 a 15,15 0 0 0 -16.46,-3.18 l -0.18,0.07 a 15,15 0 0 0 -9.3,13.85 v 16.9 a 15,15 0 0 1 -9.77,14"
       id="path3211"
       style="stroke:#0d3004;stroke-opacity:1" /><circle
       class="cls-1"
       cx="351.88"
       cy="154.42999"
       r="48.689999"
       id="circle3213"
       style="stroke:#0d3004;stroke-opacity:1" /></g><text
     xml:space="preserve"
     style="font-size:14px;line-height:1.25;font-family:Roboto;-inkscape-font-specification:Roboto;text-align:end;letter-spacing:0px;text-anchor:end"
     x="372.16559"
     y="319.02362"
     id="text4373"
     inkscape:export-xdpi="100.13521"
     inkscape:export-ydpi="100.13521"><tspan
       sodipodi:role="line"
       id="tspan4371"
       x="372.16559"
       y="319.02362"
       style="font-style:normal;font-variant:normal;font-weight:bold;font-stretch:normal;font-family:Roboto;-inkscape-font-specification:'Roboto Bold'">PILOTS</tspan></text><text
     xml:space="preserve"
     style="font-size:10px;line-height:1.25;font-family:Roboto;-inkscape-font-specification:Roboto;text-align:end;letter-spacing:0px;text-anchor:end;clip-rule:evenodd;fill-rule:nonzero;stroke-linecap:round;stroke-linejoin:round"
     x="246.8071"
     y="311.4986"
     id="text4373-7"
     inkscape:export-xdpi="100.13521"
     inkscape:export-ydpi="100.13521"><tspan
       sodipodi:role="line"
       id="tspan4371-3"
       x="246.8071"
       y="311.4986"
       style="font-size:10px;text-align:center;text-anchor:middle">ground </tspan><tspan
       sodipodi:role="line"
       x="246.8071"
       y="323.9986"
       id="tspan4393"
       style="font-size:10px;text-align:center;text-anchor:middle">system</tspan></text><text
     xml:space="preserve"
     style="font-size:7px;line-height:1.25;font-family:Roboto;-inkscape-font-specification:Roboto;text-align:end;letter-spacing:0px;text-anchor:end;clip-rule:evenodd;fill-rule:nonzero;stroke-linecap:round;stroke-linejoin:round"
     x="489.50439"
     y="91.311142"
     id="text4373-7-3"
     inkscape:export-xdpi="100.13521"
     inkscape:export-ydpi="100.13521"><tspan
       sodipodi:role="line"
       x="489.50439"
       y="91.311142"
       id="tspan4393-7"
       style="font-size:7px;text-align:center;text-anchor:middle">onboard </tspan><tspan
       sodipodi:role="line"
       x="489.50439"
       y="100.06114"
       style="font-size:7px;text-align:center;text-anchor:middle"
       id="tspan4436">unit</tspan></text></g><g
   inkscape:groupmode="layer"
   id="layer7"
   inkscape:label="legend"><path
     style="clip-rule:evenodd;fill:none;fill-rule:nonzero;stroke:#12a2f4;stroke-width:1;stroke-linecap:butt;stroke-linejoin:miter;stroke-miterlimit:10;stroke-dasharray:1, 3;stroke-dashoffset:0;stroke-opacity:0.623529;marker-end:url(#Arrow1Mend-9)"
     d="m 617.11384,220.0049 27.14735,-0.6935"
     id="path1084-1"
     sodipodi:nodetypes="cc"
     inkscape:export-xdpi="100.13521"
     inkscape:export-ydpi="100.13521" /><path
     style="clip-rule:evenodd;fill:none;fill-rule:nonzero;stroke:#f39913;stroke-width:1;stroke-linecap:butt;stroke-linejoin:miter;stroke-miterlimit:10;stroke-dasharray:1, 3;stroke-dashoffset:0;stroke-opacity:1;marker-end:url(#Arrow1Mend-9-4)"
     d="m 617.3009,234.55752 27.14735,-0.6935"
     id="path1084-1-7"
     sodipodi:nodetypes="cc"
     inkscape:export-xdpi="100.13521"
     inkscape:export-ydpi="100.13521" /><text
     xml:space="preserve"
     style="font-size:8px;line-height:1.25;font-family:Roboto;-inkscape-font-specification:Roboto;text-align:end;letter-spacing:0px;text-anchor:end"
     x="608.72205"
     y="225.87146"
     id="text3623"
     inkscape:export-xdpi="100.13521"
     inkscape:export-ydpi="100.13521"><tspan
       sodipodi:role="line"
       id="tspan3621"
       x="608.72205"
       y="225.87146"
       style="font-size:8px;text-align:end;text-anchor:end">standard radio control </tspan><tspan
       sodipodi:role="line"
       x="608.72205"
       y="235.87146"
       id="tspan3625"
       style="font-size:8px;text-align:end;text-anchor:end">glider / tow plane</tspan></text><text
     xml:space="preserve"
     style="font-size:8px;line-height:1.25;font-family:Roboto;-inkscape-font-specification:Roboto;text-align:end;letter-spacing:0px;text-anchor:end;clip-rule:evenodd;fill-rule:nonzero;stroke-linecap:round;stroke-linejoin:round"
     x="605.84863"
     y="256.83456"
     id="text3623-6"
     inkscape:export-xdpi="100.13521"
     inkscape:export-ydpi="100.13521"><tspan
       sodipodi:role="line"
       x="605.84863"
       y="256.83456"
       id="tspan3625-5"
       style="font-size:8px;text-align:end;text-anchor:end">low latency</tspan><tspan
       sodipodi:role="line"
       x="605.84863"
       y="266.83456"
       style="font-size:8px;text-align:end;text-anchor:end"
       id="tspan3686">data/video downling</tspan></text><text
     xml:space="preserve"
     style="font-size:8px;line-height:1.25;font-family:Roboto;-inkscape-font-specification:Roboto;text-align:end;letter-spacing:0px;text-anchor:end;clip-rule:evenodd;fill-rule:nonzero;stroke-linecap:round;stroke-linejoin:round"
     x="607.34619"
     y="283.07889"
     id="text3623-6-8"
     inkscape:export-xdpi="100.13521"
     inkscape:export-ydpi="100.13521"><tspan
       sodipodi:role="line"
       x="607.34619"
       y="283.07889"
       style="font-size:8px;text-align:end;text-anchor:end"
       id="tspan3686-9">aut. control signal for RC,</tspan><tspan
       sodipodi:role="line"
       x="607.34619"
       y="293.07889"
       style="font-size:8px;text-align:end;text-anchor:end"
       id="tspan3711">voice output,</tspan><tspan
       sodipodi:role="line"
       x="607.34619"
       y="303.07889"
       style="font-size:8px;text-align:end;text-anchor:end"
       id="tspan3713">visual output</tspan></text><path
     style="clip-rule:evenodd;fill:none;fill-rule:nonzero;stroke:#43f313;stroke-width:1.2;stroke-linecap:butt;stroke-linejoin:miter;stroke-miterlimit:10;stroke-dasharray:4.8, 2.4;stroke-dashoffset:0;stroke-opacity:1;marker-end:url(#marker3045-7)"
     d="m 644.56421,258.11099 -25.199,0.51734"
     id="path1084-7-4-1"
     sodipodi:nodetypes="cc"
     inkscape:transform-center-x="-5.7130669"
     inkscape:transform-center-y="-13.162413"
     inkscape:export-xdpi="100.13521"
     inkscape:export-ydpi="100.13521" /><path
     style="clip-rule:evenodd;fill:none;fill-rule:nonzero;stroke:#000000;stroke-width:1;stroke-linecap:butt;stroke-linejoin:miter;stroke-miterlimit:10;stroke-dasharray:6, 1;stroke-dashoffset:0;stroke-opacity:1;marker-end:url(#marker4073)"
     d="m 619.94162,289.6327 c 17.74494,-0.77592 12.66718,-0.0306 25.54299,-0.11064"
     id="path1871-2"
     sodipodi:nodetypes="cc"
     inkscape:export-xdpi="100.13521"
     inkscape:export-ydpi="100.13521" /><rect
     style="opacity:1;fill:none;fill-opacity:1;stroke:#000000;stroke-width:0.714658;stroke-miterlimit:10;stroke-dasharray:none;stroke-dashoffset:0;stroke-opacity:1"
     id="rect4263"
     width="152.54472"
     height="105.04811"
     x="512.44946"
     y="210.06548"
     inkscape:export-xdpi="100.13521"
     inkscape:export-ydpi="100.13521" /></g><g
   inkscape:groupmode="layer"
   id="layer8"
   inkscape:label="frame"><rect
     style="clip-rule:evenodd;opacity:1;fill:none;fill-opacity:1;fill-rule:nonzero;stroke:#000000;stroke-width:0.323333;stroke-linecap:round;stroke-linejoin:round;stroke-miterlimit:10;stroke-dasharray:none;stroke-dashoffset:0;stroke-opacity:0.504032"
     id="rect4263-7"
     width="515.58698"
     height="274.82465"
     x="185.10388"
     y="60.581303"
     inkscape:export-xdpi="100.13521"
     inkscape:export-ydpi="100.13521" /></g></svg>
